<svg width="136" height="48" viewBox="0 0 136 48" fill="none" xmlns="http://www.w3.org/2000/svg"><path fill-rule="evenodd" clip-rule="evenodd" d="M.24.22 0 .44v21.6l.23.21.23.23h14.42l.36-.39a52.05 52.05 0 0 1 .9-.9l.21-.22.22-.21.25-.26.25-.25.23-.23.23-.23.24-.23.23-.23a127.74 127.74 0 0 1 .44-.46c.07-.08.09-.79.09-3.05 0-2.95 0-2.96-.15-3.13l-1-1.03-.85-.86.42-.41c.7-.7.65-.34.65-3.86 0-2.37-.02-3.11-.09-3.19-.04-.05-.8-.83-1.69-1.72L14.21 0H.48L.24.22Zm20.72 0-.24.22v21.58l.23.23.24.23h15.65l.24-.27.24-.27v-1.7c0-1.76 0-1.82-.3-2.12l-.16-.15H25.9v-4.58h10.02l.24-.21.23-.22V9.42l-.22-.23-.23-.24H25.9V4.57h5.35c3.74 0 5.39-.02 5.48-.07.08-.04.23-.16.35-.27l.2-.2.03-1.76.02-1.75-.27-.26L36.8 0H21.2l-.24.22ZM39.7.1l-.24.25-.15.14V22l.24.24.24.24h15l.27-.27.26-.26v-1.7c0-1.78-.01-1.85-.32-2.13l-.16-.15H44.5V.39l-.2-.2-.2-.19h-2.15c-1.88 0-2.17.01-2.24.1Zm17.2.16-.26.25v21.43l.24.27.24.27h15.04l.24-.27.25-.27v-1.7c0-1.74-.01-1.82-.29-2.12l-.13-.15H61.89V.47l-.22-.23-.23-.24h-4.3l-.25.26Zm12.16 0c-.07.15-.13.34-.13.43 0 .19.2.64.28.64.03 0 .05.04.05.1 0 .05.03.1.06.1s.08.07.1.16c.02.1.07.17.1.17.04 0 .07.06.07.13s.03.13.07.13c.04 0 .07.05.07.1 0 .06.02.1.06.1.03 0 .08.07.1.15.05.13.27.48.37.58.02.02.1.16.16.31.08.16.16.29.19.29.02 0 .05.04.05.1 0 .05.03.1.06.1.04 0 .07.04.07.09 0 .05.04.14.08.18.09.1.13.17.5.82l.27.43c.03.02.1.16.18.31.07.16.15.29.18.29s.05.04.05.1c0 .05.02.1.05.1.03 0 .1.13.18.3.07.16.15.3.17.3.03 0 .14.17.26.39.11.22.25.43.3.48.03.05.13.21.2.36.08.16.16.29.19.29.02 0 .05.04.05.1 0 .05.02.1.06.1.04 0 .08.07.1.16.03.1.08.17.1.17.04 0 .07.04.07.08 0 .05.05.15.11.22.07.07.18.26.25.41.07.16.15.28.18.28s.06.05.06.1c0 .06.02.1.06.1.04 0 .07.05.07.1 0 .06.02.1.05.1.03 0 .11.13.18.28.07.16.18.33.24.4.07.05.13.13.13.17 0 .1.22.47.28.48.03 0 .05.04.05.1 0 .05.03.1.06.1.04 0 .07.05.07.12 0 .07.05.16.1.2.05.05.1.13.1.18 0 .05.03.1.07.1.03 0 .06.04.06.1 0 .05.03.09.06.09s.1.13.17.28c.07.16.18.33.25.4.11.1.12.31.12 4.5v4.39l.2.19.2.19h2.15c2.1 0 2.16 0 2.2-.14.02-.07.07-.13.1-.13s.1-.05.16-.1c.1-.1.1-.6.1-4.44 0-4.27.02-4.68.21-4.68.03 0 .06-.04.06-.1 0-.05.03-.1.07-.1.03 0 .06-.04.06-.09 0-.05.05-.12.1-.17a.3.3 0 0 0 .1-.2c0-.08.03-.13.07-.13.03 0 .06-.05.06-.1 0-.06.03-.1.05-.1.06 0 .29-.38.29-.47 0-.04.06-.13.13-.21.07-.08.18-.26.25-.4.06-.13.13-.25.16-.25s.05-.04.05-.1c0-.05.03-.1.07-.1.04 0 .07-.04.07-.09 0-.05.04-.12.1-.17a.3.3 0 0 0 .1-.2c0-.08.03-.13.06-.13.04 0 .07-.05.07-.1 0-.06.02-.1.05-.1.04 0 .12-.13.19-.28.06-.16.17-.33.23-.38.06-.06.16-.23.23-.38.07-.16.14-.29.17-.29s.06-.04.06-.1c0-.05.03-.1.06-.1.04 0 .07-.04.07-.09 0-.05.05-.13.1-.17a.3.3 0 0 0 .1-.2c0-.08.03-.13.07-.13.03 0 .06-.05.06-.1 0-.06.03-.1.05-.1.03 0 .14-.17.24-.37.1-.2.21-.36.24-.36.02 0 .1-.13.17-.3.07-.16.16-.3.18-.3.03 0 .05-.03.05-.07 0-.03.06-.13.14-.21a.85.85 0 0 0 .17-.31.8.8 0 0 1 .17-.3c.06-.06.17-.25.25-.4.07-.16.17-.32.22-.38l.15-.22c.27-.49.33-.6.37-.63.07-.06.66-1.07.66-1.13 0-.03.03-.06.06-.06s.08-.07.1-.15a.53.53 0 0 1 .1-.18c.03-.03.14-.22.36-.63a.85.85 0 0 1 .11-.17c.02-.01.1-.12.16-.24.14-.23.1-.45-.1-.67-.07-.08-.13-.17-.13-.21 0-.05-.8-.07-2.49-.07h-2.5l-.14.31c-.08.18-.2.37-.25.44-.06.06-.2.28-.3.48-.1.2-.2.36-.24.36-.03 0-.06.06-.06.13 0 .08-.02.14-.05.14-.05 0-.06.03-.3.5l-.17.3c-.1.07-.27.4-.27.49 0 .05-.03.1-.07.1-.03 0-.06.04-.06.1 0 .05-.03.1-.06.1-.04 0-.12.13-.19.3-.06.16-.14.3-.17.3s-.05.04-.05.1c0 .05-.02.1-.06.1-.03 0-.1.12-.18.27l-.16.32-.24.4a4.62 4.62 0 0 1-.33.56c-.3.54-.45.8-.48.83-.03.02-.1.16-.18.31-.07.16-.15.29-.18.29s-.05.04-.05.1c0 .05-.02.1-.05.1-.03 0-.11.13-.18.3-.08.16-.16.3-.18.3-.03 0-.05.02-.05.06 0 .04-.04.11-.09.16-.07.07-.1.03-.21-.2-.07-.16-.16-.3-.18-.3-.03 0-.06-.04-.06-.1 0-.05-.02-.1-.05-.1-.02 0-.1-.13-.18-.29-.07-.16-.15-.3-.18-.3s-.05-.04-.05-.09c0-.04-.06-.15-.13-.22a.85.85 0 0 1-.17-.31c-.03-.1-.07-.17-.1-.17-.04 0-.06-.04-.06-.1 0-.04-.06-.14-.12-.21-.06-.07-.2-.3-.3-.5-.11-.22-.22-.39-.26-.39-.03 0-.06-.04-.06-.1 0-.11-.21-.5-.28-.5-.02 0-.05-.04-.05-.1 0-.05-.02-.1-.06-.1-.03 0-.07-.08-.09-.18a.8.8 0 0 0-.17-.32c-.08-.08-.14-.2-.14-.25 0-.06-.03-.1-.06-.1s-.08-.08-.1-.17c-.03-.1-.07-.17-.1-.17-.04 0-.07-.04-.07-.1 0-.05-.03-.1-.07-.1-.04 0-.07-.06-.07-.13s-.03-.13-.06-.13c-.04 0-.07-.04-.07-.1a.32.32 0 0 0-.08-.18 1.5 1.5 0 0 1-.19-.28 1.5 1.5 0 0 0-.18-.3.32.32 0 0 1-.08-.17c0-.06-.03-.1-.07-.1-.03 0-.06-.06-.06-.13s-.03-.13-.07-.13c-.04 0-.07-.05-.07-.1 0-.06-.02-.1-.06-.1-.03 0-.08-.07-.1-.15a2.76 2.76 0 0 0-.26-.46l-.2-.32H69.2l-.14.26ZM12.01 4.85l.4.4v2.94l-.38.38-.39.38h-6.6V4.44h6.57l.4.4Zm.8 8.95.54.53v1.33c0 1.33 0 1.37-.25 1.6l-.54.54-.15.17H5.05v-4.71h7.23l.54.54ZM.36 25.68l-.25.23c-.09.08-.1 1.2-.1 10.9v10.8l.2.2.19.19h7.27c6.49 0 7.29-.01 7.36-.1l.17-.18a17.4 17.4 0 0 0 .76-.77l.23-.23.22-.21.25-.25.25-.25.21-.22.24-.23.23-.23.21-.21a134.21 134.21 0 0 0 .49-.48c.25-.24.25-.2.25-3.27V38.4l-1-1c-.93-.93-1.09-1.12-.93-1.12.03 0 .13-.08.22-.18a99.16 99.16 0 0 1 .42-.4c.36-.3.36-.3.36-3.63 0-2.01-.03-3.09-.07-3.09a30.6 30.6 0 0 0-1.72-1.8l-1.66-1.65H7.33l-6.83.01-.15.15Zm26.54-.02c0 .07-.03.13-.06.13-.04 0-.07.05-.07.1 0 .1-.03.17-.19.48-.04.08-.1.26-.11.41-.03.15-.07.27-.1.27-.04 0-.06.05-.06.12 0 .07-.02.14-.05.17-.07.06-.29.72-.29.85 0 .07-.03.12-.06.12-.04 0-.07.04-.07.1 0 .05-.03.16-.06.23a1.8 1.8 0 0 0-.23.6c-.04.2-.18.55-.37.93a1.9 1.9 0 0 0-.1.38c-.03.15-.07.28-.1.28-.04 0-.07.07-.07.16 0 .1-.03.17-.06.17-.04 0-.07.07-.07.17 0 .09-.03.16-.06.16s-.08.14-.1.3c-.03.16-.08.3-.11.3s-.06.07-.06.16c0 .1-.03.17-.07.17-.04 0-.07.07-.07.17 0 .09-.02.16-.05.16-.04 0-.08.14-.1.3-.03.16-.08.3-.11.3-.04 0-.07.07-.07.16 0 .1-.03.17-.06.17-.04 0-.07.06-.07.12 0 .07-.04.22-.1.32-.05.1-.1.26-.1.34 0 .08-.03.15-.07.15-.03 0-.06.07-.06.16s-.03.18-.07.2c-.04.02-.07.11-.07.2 0 .09-.02.17-.04.18-.07.03-.29.65-.29.8 0 .06-.03.12-.06.12-.04 0-.07.07-.07.16 0 .08-.02.17-.05.18-.06.03-.28.65-.28.8 0 .06-.03.11-.07.11-.03 0-.06.08-.06.17 0 .08-.03.17-.05.18-.07.03-.29.65-.29.8 0 .06-.03.11-.06.11-.04 0-.07.06-.07.12 0 .07-.06.24-.13.39-.07.15-.15.35-.17.46-.04.2-.08.29-.26.7-.06.15-.15.4-.19.59-.04.18-.1.33-.13.33s-.05.05-.05.1a.7.7 0 0 1-.08.25c-.16.32-.18.38-.23.64-.02.15-.06.27-.1.27-.03 0-.05.05-.05.12 0 .06-.03.15-.06.18-.03.04-.1.23-.17.43l-.17.5c-.18.43-.4 1.03-.4 1.1 0 .03-.06.18-.13.34a4.5 4.5 0 0 0-.34 1.01c0 .06-.03.1-.06.1-.04 0-.07.07-.07.16 0 .1-.03.17-.07.17-.03 0-.06.07-.06.17 0 .09-.03.16-.07.16-.1 0-.08.37.02.55.22.4.12.38 2.68.38h2.34l.05-.3c.02-.16.07-.3.1-.3s.06-.07.06-.16c0-.1.03-.17.06-.17.04 0 .07-.07.07-.16 0-.1.03-.17.06-.17.04 0 .09-.13.11-.3.03-.16.07-.3.1-.3.04 0 .06-.07.06-.16 0-.1.03-.17.07-.17.04 0 .07-.06.07-.13s.02-.14.06-.16c.03-.03.08-.18.1-.34.03-.16.08-.3.1-.3.04 0 .07-.07.07-.16 0-.1.03-.17.06-.17.04 0 .07-.06.07-.13s.03-.14.06-.16c.04-.02.09-.18.11-.34.03-.16.07-.3.1-.3s.06-.06.07-.14l.03-.15 3.45-.02 3.46-.02.13.4c.07.22.15.4.18.4s.05.07.05.16c0 .1.02.17.06.17.03 0 .08.13.1.3.02.16.07.3.1.3.04 0 .07.07.07.16 0 .1.03.17.07.17.03 0 .06.07.06.16 0 .1.03.17.06.17s.08.13.1.3c.03.16.08.3.11.3.04 0 .06.07.06.16 0 .1.03.17.07.17.04 0 .07.07.07.16 0 .1.03.17.06.17s.08.13.1.3c.03.16.08.3.11.3s.06.06.06.15c0 .3.02.31 2.5.31h2.33l.12-.23c.07-.13.15-.23.18-.23s.05-.08.05-.17c0-.1-.03-.17-.07-.17-.03 0-.06-.06-.06-.14a.91.91 0 0 0-.1-.34.86.86 0 0 1-.1-.29.56.56 0 0 0-.06-.2c-.1-.2-.2-.43-.32-.82-.06-.2-.14-.39-.17-.42a.4.4 0 0 1-.05-.21c0-.08-.02-.16-.05-.17a2.52 2.52 0 0 1-.28-.81c0-.06-.03-.1-.07-.1-.04 0-.07-.08-.07-.17 0-.09-.02-.17-.05-.18a2.52 2.52 0 0 1-.28-.81c0-.06-.03-.1-.06-.1-.04 0-.07-.08-.07-.17 0-.1-.03-.17-.06-.17s-.08-.12-.1-.27c-.03-.14-.08-.28-.11-.3-.04-.02-.06-.09-.06-.16 0-.06-.06-.23-.12-.37a9.84 9.84 0 0 1-.46-1.27c-.02-.08-.06-.15-.1-.15-.03 0-.05-.05-.05-.12 0-.13-.22-.78-.3-.85-.02-.03-.03-.1-.03-.17 0-.06-.03-.12-.07-.12-.04 0-.07-.07-.07-.17 0-.09-.02-.16-.06-.16-.03 0-.08-.13-.1-.3-.02-.16-.07-.31-.1-.33-.04-.02-.07-.1-.07-.17s-.03-.13-.07-.13c-.03 0-.06-.07-.06-.16 0-.1-.03-.17-.06-.17s-.08-.13-.1-.3c-.03-.16-.08-.31-.11-.33-.04-.02-.06-.1-.06-.17s-.03-.13-.07-.13c-.04 0-.07-.07-.07-.16s-.03-.18-.06-.2c-.04-.03-.07-.11-.07-.19a.9.9 0 0 0-.1-.33.88.88 0 0 1-.1-.32c0-.07-.03-.12-.07-.12-.03 0-.06-.08-.06-.17 0-.1-.03-.17-.07-.17-.04 0-.07-.06-.07-.15a.91.91 0 0 0-.1-.33.88.88 0 0 1-.1-.32c0-.07-.02-.12-.06-.12-.04 0-.07-.08-.07-.17 0-.1-.02-.17-.06-.17-.03 0-.08-.13-.1-.3-.02-.16-.07-.3-.1-.3-.04 0-.07-.07-.07-.16s-.03-.16-.07-.16c-.03 0-.06-.08-.06-.17 0-.1-.03-.17-.06-.17s-.08-.13-.1-.3c-.03-.16-.08-.3-.11-.3-.04 0-.06-.07-.06-.16s-.03-.16-.07-.16c-.04 0-.07-.1-.07-.2 0-.11-.03-.2-.06-.2-.04 0-.07-.07-.07-.15a.91.91 0 0 0-.1-.34.88.88 0 0 1-.1-.31c0-.07-.03-.13-.07-.13-.03 0-.06-.07-.06-.17 0-.09-.03-.16-.07-.16-.03 0-.06-.07-.06-.15a.91.91 0 0 0-.1-.34.88.88 0 0 1-.1-.31c0-.07-.03-.13-.07-.13-.04 0-.07-.07-.07-.16s-.02-.17-.05-.18a2.52 2.52 0 0 1-.28-.81c0-.06-.03-.1-.07-.1-.03 0-.06-.08-.06-.17 0-.1-.03-.17-.06-.17s-.08-.1-.1-.24a1.74 1.74 0 0 0-.24-.62c-.04-.09-.37-.1-2.28-.12-2.2-.02-2.24-.01-2.24.12Zm14.1.02-.25.23c-.09.08-.1 1.2-.1 10.9v10.8l.2.2.19.19h7.58c6.61 0 7.58-.01 7.61-.1.03-.08.05-.08.14 0 .08.08.46.1 2.45.1 2.28 0 2.35 0 2.35-.13 0-.07.03-.14.06-.17.04-.02.09-.17.11-.33.02-.16.07-.3.1-.3.04 0 .06-.07.06-.16 0-.1.03-.17.07-.17.04 0 .06-.05.06-.12 0-.06.03-.15.06-.18.03-.04.11-.24.18-.46.07-.22.15-.43.18-.46a.33.33 0 0 0 .05-.19c0-.06.03-.11.07-.11.03 0 .06-.05.06-.11 0-.15.22-.78.28-.81.03-.01.05-.08.05-.15 0-.07.03-.18.06-.24l.17-.37.1-.25h3.43c3 0 3.42.02 3.42.1 0 .06.03.1.06.1.04 0 .07.07.07.15 0 .08.04.24.1.34.05.1.1.25.1.31 0 .07.03.13.06.13.04 0 .07.07.07.16s.02.17.05.18c.06.03.28.66.28.81 0 .06.03.1.07.1.04 0 .07.07.07.14s.02.14.06.16c.03.02.07.15.1.28a1.79 1.79 0 0 0 .23.62c.04.07.07.18.07.23 0 .06.03.1.06.1s.07.1.1.22c.01.12.06.3.1.4l.07.18h2.33c1.93 0 2.35-.02 2.43-.1.05-.05.1-.1.1-.13s.04-.1.1-.15c.08-.08.1-.17.06-.38a.87.87 0 0 0-.1-.33.3.3 0 0 1-.07-.18c0-.07-.03-.12-.07-.12-.03 0-.06-.06-.06-.14a.64.64 0 0 0-.06-.24c-.03-.07-.12-.3-.18-.53-.07-.23-.15-.42-.18-.42-.02 0-.05-.07-.05-.16 0-.1-.03-.17-.06-.17-.04 0-.07-.05-.07-.12 0-.15-.22-.77-.28-.8-.03 0-.05-.1-.05-.18 0-.09-.03-.16-.06-.16s-.08-.13-.1-.3c-.03-.16-.08-.3-.11-.3-.04 0-.06-.07-.06-.16 0-.1-.03-.17-.07-.17-.04 0-.07-.07-.07-.16 0-.1-.02-.17-.06-.17-.03 0-.07-.13-.1-.3-.02-.16-.07-.3-.1-.3-.04 0-.07-.07-.07-.16 0-.1-.03-.17-.06-.17-.04 0-.07-.06-.07-.13a.63.63 0 0 0-.06-.25 4.35 4.35 0 0 1-.17-.45l-.18-.5a5.7 5.7 0 0 1-.39-1.14c0-.06-.03-.11-.06-.11-.04 0-.07-.08-.07-.16 0-.1-.02-.17-.05-.19a2.52 2.52 0 0 1-.28-.8c0-.06-.03-.11-.07-.11-.04 0-.07-.08-.07-.17 0-.09-.02-.16-.06-.16-.03 0-.08-.12-.1-.27-.03-.14-.07-.28-.1-.3-.04-.02-.07-.11-.07-.2 0-.09-.03-.16-.06-.16-.04 0-.07-.05-.07-.1a.56.56 0 0 0-.06-.22 3.77 3.77 0 0 1-.17-.48c-.06-.2-.16-.48-.23-.63a6.62 6.62 0 0 1-.24-.66 2.37 2.37 0 0 0-.18-.46.32.32 0 0 1-.05-.18c0-.07-.03-.12-.07-.12-.03 0-.06-.06-.06-.12 0-.14-.22-.79-.3-.86-.02-.02-.04-.1-.04-.16 0-.07-.03-.12-.06-.12-.04 0-.07-.06-.07-.12 0-.13-.22-.79-.29-.86-.02-.02-.04-.1-.04-.16 0-.07-.02-.12-.05-.12-.03 0-.09-.14-.13-.32-.08-.38-.3-.97-.37-1-.03 0-.05-.1-.05-.18 0-.09-.03-.16-.06-.16-.04 0-.07-.05-.07-.12 0-.15-.22-.77-.28-.8-.03 0-.05-.1-.05-.18 0-.09-.03-.16-.06-.16s-.08-.13-.1-.3c-.03-.16-.08-.3-.11-.3-.04 0-.06-.07-.06-.16 0-.1-.03-.17-.07-.17-.04 0-.07-.07-.07-.16 0-.1-.02-.17-.06-.17-.03 0-.08-.13-.1-.3-.02-.16-.07-.3-.1-.3-.04 0-.07-.07-.07-.16 0-.1-.03-.17-.07-.17-.03 0-.06-.07-.06-.16 0-.08-.05-.17-.1-.2-.07-.02-1.1-.04-2.3-.04-2.1 0-2.18 0-2.18.13 0 .07-.03.14-.05.15-.07.03-.29.65-.29.8 0 .07-.03.12-.06.12-.04 0-.07.07-.07.16s-.02.17-.05.18c-.06.03-.28.65-.28.8 0 .07-.03.12-.07.12-.03 0-.06.05-.06.12 0 .06-.06.24-.13.38-.07.15-.15.36-.17.46-.05.2-.08.3-.27.71-.06.14-.14.4-.18.58-.05.18-.1.33-.13.33s-.05.06-.05.13c0 .06-.02.14-.05.16-.07.07-.29.72-.29.85 0 .07-.03.12-.06.12-.04 0-.07.05-.07.1 0 .1-.03.17-.19.48-.04.08-.1.27-.11.41-.03.15-.07.27-.1.27-.04 0-.06.06-.06.14 0 .07-.03.13-.07.13-.04 0-.07.07-.07.16s-.02.18-.06.2c-.03.02-.07.14-.1.28-.02.13-.07.28-.1.34a5.86 5.86 0 0 0-.36 1c-.03.15-.08.27-.11.27-.04 0-.06.08-.06.17 0 .09-.03.16-.07.16-.04 0-.07.08-.07.17 0 .1-.02.17-.05.17-.04 0-.08.13-.1.3-.03.16-.08.3-.12.3-.03 0-.06.07-.06.16s-.03.16-.06.16c-.04 0-.07.08-.07.17 0 .09-.03.16-.06.16s-.08.14-.1.3c-.03.17-.08.3-.11.3s-.06.08-.06.17c0 .09-.03.16-.07.16-.04 0-.07.08-.07.16 0 .1-.02.18-.06.2-.03.02-.08.16-.1.3-.03.15-.07.27-.1.27-.04 0-.07.06-.07.13a.7.7 0 0 1-.06.27l-.13.26c-.04.06-.08.23-.11.36-.02.13-.07.26-.1.28-.04.02-.06.1-.06.2 0 .09-.03.16-.07.16-.04 0-.07.07-.07.16 0 .1-.02.17-.06.17-.03 0-.08.13-.1.3-.03.16-.08.3-.1.3-.04 0-.07.07-.07.16 0 .1-.03.17-.06.17-.04 0-.07.07-.07.16 0 .1-.03.17-.06.17-.04 0-.09.13-.11.3-.02.16-.07.3-.1.3-.04 0-.06.07-.06.16 0 .08-.02.17-.05.18-.06.02-.26.55-.37.95a1.3 1.3 0 0 1-.11.3c-.02.02-.1.2-.16.4-.22.62-.24.6-.24-.3 0-.88-.03-1-.31-1.28-.06-.06-1.2-.08-5.27-.08h-5.18V26.02l-.25-.25-.25-.25h-2.1c-2.05.01-2.08.02-2.23.16Zm37.02.11-.25.26V47.6l.2.2.2.19h4.21l.22-.2.22-.18v-6.48c0-5.76.01-6.46.1-6.38.05.06.1.14.1.17 0 .04.03.08.06.08s.08.05.1.12c.02.06.09.18.15.25.14.16.25.32.4.6.05.12.13.22.16.22s.06.04.06.1c0 .05.03.1.06.1s.08.06.1.14c.03.08.1.2.18.28.07.07.12.17.12.22 0 .05.02.09.05.09.03 0 .14.15.25.33.1.18.22.33.25.33s.05.04.05.09c0 .05.07.17.17.28.09.1.16.23.16.28 0 .04.03.08.06.08s.08.07.1.16c.03.1.07.17.1.17.04 0 .07.04.07.09 0 .04.06.12.14.18.07.05.13.14.13.2s.04.15.1.2c.05.04.1.1.1.14 0 .04.05.12.12.18.07.06.15.17.17.25.03.09.08.15.11.15.04 0 .06.04.06.09 0 .04.06.13.14.18.07.05.13.14.13.2s.04.15.1.2c.05.04.1.1.1.15 0 .03.05.11.12.17.06.06.17.22.24.36.07.13.15.24.17.24.03 0 .13.17.24.37.1.2.21.36.24.36s.05.05.05.1c0 .06.03.1.06.1s.11.12.18.27c.07.14.15.26.18.26.02 0 .05.05.05.1 0 .06.02.1.05.1.03 0 .1.1.17.23s.15.24.18.24c.04 0 .06.04.06.1 0 .05.03.1.06.1s.1.11.17.26c.07.15.15.27.18.27s.06.04.06.1c0 .05.02.1.05.1.03 0 .1.1.17.23.07.12.15.23.18.23.04 0 .06.03.06.06 0 .06.26.48.4.65.04.04.07.1.07.15 0 .04.03.07.06.07.04 0 .07.03.07.07 0 .04.07.17.16.28.1.12.17.26.17.3 0 .04.03.08.07.08.03 0 .06.04.06.1 0 .05.03.1.05.1.03 0 .11.1.18.23.07.12.15.23.18.23s.06.03.06.07c0 .04.04.11.1.17.07.07.45.09 2.14.09h2.05l.21-.22.21-.22V26.04l-.28-.26-.28-.26h-1.98c-1.96 0-1.98 0-2.14.15-.09.09-.2.2-.26.24-.1.07-.1.8-.1 6.55 0 3.95-.03 6.46-.07 6.46-.03 0-.08-.06-.1-.14-.02-.07-.07-.13-.1-.13-.04 0-.07-.04-.07-.1 0-.05-.02-.1-.05-.1-.03 0-.1-.1-.17-.23s-.15-.23-.19-.23c-.03 0-.05-.06-.05-.13 0-.08-.03-.14-.06-.14-.04 0-.15-.15-.25-.33-.1-.18-.2-.33-.23-.33s-.06-.03-.06-.07a.9.9 0 0 0-.16-.29.87.87 0 0 1-.17-.3c0-.03-.03-.07-.06-.07s-.08-.05-.1-.11a1.34 1.34 0 0 0-.31-.48.69.69 0 0 1-.16-.25c-.02-.09-.07-.15-.1-.15-.04 0-.07-.04-.07-.09 0-.05-.05-.15-.11-.22a2.2 2.2 0 0 1-.33-.49.78.78 0 0 0-.17-.2c-.06-.06-.12-.16-.12-.21 0-.06-.04-.14-.1-.19-.05-.04-.1-.12-.1-.17 0-.05-.02-.1-.05-.1-.03 0-.14-.14-.25-.32-.1-.18-.21-.33-.24-.33-.02 0-.08-.1-.12-.2-.05-.11-.1-.2-.14-.2-.02 0-.06-.08-.09-.17-.02-.09-.07-.16-.1-.16-.04 0-.07-.04-.07-.09 0-.04-.06-.13-.13-.18-.08-.05-.14-.14-.14-.2a.3.3 0 0 0-.1-.2c-.05-.04-.1-.1-.1-.15 0-.03-.05-.11-.12-.17a.67.67 0 0 1-.17-.26c-.02-.08-.07-.14-.1-.14-.04 0-.07-.04-.07-.09 0-.05-.06-.13-.13-.18-.08-.05-.14-.15-.14-.2a.3.3 0 0 0-.1-.2c-.05-.04-.1-.12-.1-.16 0-.04-.05-.12-.13-.17-.07-.05-.13-.12-.13-.16 0-.08-.67-1.13-.74-1.15-.03-.02-.06-.07-.06-.12 0-.05-.02-.1-.05-.1-.03 0-.11-.11-.18-.26-.07-.15-.14-.26-.18-.26-.03 0-.05-.05-.05-.1 0-.06-.03-.1-.06-.1-.04 0-.08-.06-.1-.12a.88.88 0 0 0-.16-.26 2.65 2.65 0 0 1-.38-.6c-.06-.12-.14-.22-.17-.22s-.06-.04-.06-.1c0-.04-.02-.1-.05-.1a2.3 2.3 0 0 1-.42-.66c0-.04-.69-.06-2.04-.06h-2.04l-.25.26Zm22.93 1.65-1.9 1.9-.01 7.32c-.01 4.03 0 7.4.01 7.48.02.08.26.35.52.61l.75.74.22.22.26.25.24.24.22.23.23.23.94.94.38.4h10.96l1.9-1.89 1.88-1.89v-3.48l-.24-.22-.23-.21H112.76l-.2.19-.2.19v1.61l-.45.46c-.24.25-.49.5-.53.56-.08.1-.45.1-3.04.1s-2.96 0-3.03-.1a20.2 20.2 0 0 0-.64-.64l-.55-.55V31.45l.68-.68.68-.67h2.9c2.88 0 2.89 0 2.98.14l.26.3.46.46c.08.09.18.16.22.16.03 0 .06.36.06.86 0 .85 0 .85.2 1.06l.19.2h4.32l.23-.21.24-.22v-3.49l-1.92-1.92-1.91-1.92-5.44.01h-5.44l-1.9 1.9Zm18.88-1.76-.25.23c-.1.08-.1 1.2-.1 10.9v10.8l.19.2.2.19h15.74l.2-.2.2-.2v-3.66l-.2-.2-.2-.18h-10.96v-4.58h10.05l.19-.2.19-.2v-3.66l-.23-.22-.23-.22h-9.96V30.1h10.88l.23-.23.24-.24V26.02l-.27-.25-.27-.25h-7.75l-7.75.01-.14.15Zm-107.8 4.75.4.4v2.92l-.4.4-.41.4H5.05v-4.52h6.56l.4.4Zm17.23 2.55c.02.17.07.32.1.34.04.02.07.1.07.17s.03.18.06.26l.14.26c.03.07.06.18.06.25 0 .06.05.2.1.3.06.11.1.25.1.32s.03.13.07.13c.04 0 .07.07.07.16 0 .1.03.17.06.17.04 0 .07.07.07.16 0 .14.13.53.4 1.2.14.36.26.74.26.84 0 .07.03.12.07.12.04 0 .07.07.07.15 0 .09.02.18.04.2.03.03.08.18.13.33l.12.4c.05.1-.08.11-2.08.11-2.09 0-2.13 0-2.13-.13 0-.07.03-.13.06-.13.04 0 .07-.08.07-.17 0-.09.03-.18.06-.2.04-.02.09-.17.11-.33.02-.17.07-.32.1-.34.04-.02.06-.1.06-.2 0-.08.03-.16.07-.16.04 0 .07-.07.07-.16 0-.1.02-.17.06-.17.04 0 .07-.05.07-.12 0-.07.04-.23.1-.37.05-.13.1-.3.1-.4 0-.1.03-.17.06-.17.04 0 .07-.07.07-.16 0-.1.03-.17.07-.17.03 0 .06-.05.06-.1 0-.15.24-.88.4-1.23.02-.05.1-.27.16-.5l.18-.5a.63.63 0 0 0 .06-.24c0-.13.05-.21.14-.21.02 0 .06.13.09.3Zm37.16.04c.03 0 .06.07.06.16 0 .1.03.17.07.17.04 0 .07.07.07.15 0 .16.2.81.28.89.03.02.05.1.05.16 0 .07.02.12.06.12.03 0 .08.15.1.34.03.18.08.33.1.33.04 0 .07.07.07.16s.03.18.07.2c.03.02.06.12.06.2 0 .1.03.17.07.17.04 0 .06.05.06.11 0 .15.22.77.29.8.02.02.05.1.05.19 0 .08.02.16.06.16.03 0 .08.13.1.3.05.3.07.37.23.67.04.08.07.21.07.28 0 .08.03.14.07.14.03 0 .06.03.06.06 0 .05-.75.07-2.13.07H64.2l.05-.28c.03-.16.07-.3.1-.3.04-.02.06-.08.06-.15a.6.6 0 0 1 .07-.25c.1-.17.27-.73.27-.88 0-.07.03-.13.06-.13.04 0 .07-.07.07-.16 0-.1.03-.17.06-.17s.07-.08.1-.18c.11-.56.2-.88.25-.88.03 0 .05-.07.05-.17 0-.09.03-.16.07-.16.04 0 .07-.05.07-.1 0-.11.16-.68.27-.95.15-.38.19-.46.28-.73.06-.15.11-.35.11-.44 0-.2.16-.26.19-.06 0 .09.05.16.08.16Zm-53.59 6.37.53.53V42.57l-.5.5-.48.49H5.05v-4.71h7.25l.52.54Z" fill="#000"/></svg>